<?xml version="1.0" encoding="utf-8"?>
<!-- Generator: Adobe Illustrator 27.2.0, SVG Export Plug-In . SVG Version: 6.00 Build 0)  -->
<svg version="1.1" id="Calque_1" xmlns="http://www.w3.org/2000/svg" xmlns:xlink="http://www.w3.org/1999/xlink" x="0px" y="0px"
	 viewBox="0 0 82.9 58.6" style="enable-background:new 0 0 82.9 58.6;fill:white;" xml:space="preserve">
<g>
	<g>
		<path d="M46.9,1.9c-3.6-2.4-8.2-2.4-11.8,0L0.3,25.7c-0.4,0.3-0.2,1,0.3,1h5.8c9,0,17.8-2.7,25.3-7.9L49.1,6.9c1.5-1,3.5-1,5.1,0
			L46.9,1.9z"/>
		<path d="M82.6,26.7L78,23.5l0,0L55.1,7.9c-1.5-1-3.5-1-5.1,0l-8.1,5.6l9.3,6.4c7.5,5.1,16.3,7.9,25.3,7.9h5.8
			C82.8,27.7,83,27,82.6,26.7z"/>
	</g>
	<g>
		<path d="M36.1,56.8c3.6,2.4,8.2,2.4,11.8,0L82.6,33c0.4-0.3,0.2-1-0.3-1h-5.8c-9,0-17.8,2.7-25.3,7.9L33.8,51.8
			c-1.5,1-3.5,1-5.1,0L36.1,56.8z"/>
		<path d="M0.3,32l4.6,3.2l0,0l22.8,15.6c1.5,1,3.5,1,5.1,0l8.1-5.6l-9.3-6.4c-7.5-5.1-16.3-7.9-25.3-7.9H0.5
			C0.1,31-0.1,31.7,0.3,32z"/>
	</g>
</g>
</svg>
